<?xml version="1.0" standalone="no"?>
<!DOCTYPE svg PUBLIC "-//W3C//DTD SVG 20010904//EN" "http://www.w3.org/TR/2001/REC-SVG-20010904/DTD/svg10.dtd">
<svg version="1.0" xmlns="http://www.w3.org/2000/svg" width="512.000000pt" height="512.000000pt"
        viewBox="0 0 512.000000 512.000000" preserveAspectRatio="xMidYMid meet">

        <g transform="translate(0.000000,512.000000) scale(0.100000,-0.100000)" fill="#FCEFF9" stroke="none">
                <path d="M1932 4560 c-108 -29 -187 -74 -268 -156 -66 -65 -80 -88 -170 -268
l-99 -196 -436 0 c-401 0 -442 -2 -513 -20 -110 -28 -190 -74 -271 -155 -81
-81 -127 -161 -155 -271 -19 -75 -20 -115 -20 -1254 0 -802 3 -1195 11 -1236
38 -208 212 -397 419 -453 74 -21 87 -21 2105 -21 1784 0 2038 2 2090 15 244
62 440 250 484 463 8 37 11 415 11 1231 0 1140 -1 1180 -20 1255 -51 199 -193
352 -390 419 -62 21 -84 22 -548 27 l-484 5 -69 165 c-38 90 -85 189 -106 218
-78 113 -199 197 -339 232 -72 19 -111 20 -618 19 -500 0 -547 -2 -614 -19z
m1218 -336 c30 -17 67 -49 83 -70 15 -21 65 -130 111 -241 47 -111 92 -213
102 -228 40 -61 28 -60 619 -65 511 -5 542 -6 580 -25 50 -25 105 -80 130
-130 20 -39 20 -70 23 -1215 l2 -1174 -26 -54 c-31 -64 -100 -121 -179 -151
-56 -21 -57 -21 -2063 -21 l-2007 0 -51 24 c-27 13 -67 43 -87 66 -72 84 -68
4 -65 1311 3 1144 3 1175 23 1214 25 50 80 105 130 130 38 19 69 20 555 25
364 4 521 8 535 17 40 23 65 62 165 262 56 112 113 221 127 243 30 45 93 92
144 107 21 6 234 9 564 8 l530 -2 55 -31z" />
                <path d="M2352 3494 c-479 -87 -864 -474 -947 -952 -19 -108 -19 -296 0 -403
136 -775 989 -1200 1689 -841 514 264 762 870 577 1414 -138 406 -490 710
-909 783 -103 18 -310 18 -410 -1z m378 -318 c221 -47 412 -177 539 -366 96
-144 141 -294 141 -470 0 -176 -45 -326 -141 -470 -162 -242 -417 -379 -705
-380 -180 0 -329 44 -474 141 -189 127 -319 318 -366 539 -18 84 -18 256 0
340 70 331 329 592 661 665 80 18 264 18 345 1z" />
                <path d="M4171 3274 c-134 -67 -158 -244 -45 -342 109 -96 264 -68 328 59 43
88 30 176 -39 244 -68 69 -156 82 -244 39z m170 -113 c49 -50 36 -133 -26
-166 -63 -35 -140 4 -152 78 -15 97 108 158 178 88z" />
        </g>
</svg>