<?xml version="1.0" standalone="no"?>
<!DOCTYPE svg PUBLIC "-//W3C//DTD SVG 20010904//EN" "http://www.w3.org/TR/2001/REC-SVG-20010904/DTD/svg10.dtd">
<svg version="1.0" xmlns="http://www.w3.org/2000/svg" width="512.000000pt" height="512.000000pt"
    viewBox="0 0 512.000000 512.000000" preserveAspectRatio="xMidYMid meet">

    <g transform="translate(0.000000,512.000000) scale(0.100000,-0.100000)" fill="#FCEFF9" stroke="none">
        <path d="M521 4464 c-169 -45 -301 -180 -346 -351 -23 -86 -23 -3020 0 -3106
45 -173 178 -307 350 -352 52 -13 293 -15 2035 -15 2176 0 2028 -4 2151 61
115 62 214 197 239 328 6 35 10 571 10 1540 0 1303 -2 1494 -15 1546 -45 172
-179 305 -352 350 -85 22 -3989 21 -4072 -1z m4045 -330 c15 -11 37 -33 48
-48 21 -27 21 -36 23 -914 l3 -887 -118 120 c-703 718 -717 731 -797 771 -164
81 -363 51 -498 -74 -27 -26 -243 -264 -479 -530 -236 -265 -442 -489 -458
-497 -34 -18 -92 -19 -123 -4 -12 6 -152 141 -312 299 -303 301 -334 325 -450
356 -68 19 -190 17 -256 -2 -117 -35 -144 -56 -411 -322 l-258 -256 0 941 c0
643 3 951 11 970 14 37 47 73 84 89 25 11 373 13 1997 11 l1967 -2 27 -21z" />
        <path d="M1961 3824 c-253 -68 -410 -331 -346 -579 67 -256 329 -415 580 -350
190 50 330 207 358 401 48 331 -270 615 -592 528z" />
    </g>
</svg>